<svg xmlns="http://www.w3.org/2000/svg" viewBox="0 0 1200 700" role="img" aria-label="AGIS pirate operations deck" shape-rendering="crispEdges"><defs><linearGradient id="sea" y2="1"><stop stop-color="#0c5a7c"/><stop offset="1" stop-color="#032b43"/></linearGradient><linearGradient id="wood" y2="1"><stop stop-color="#8e542a"/><stop offset="1" stop-color="#3e2418"/></linearGradient><linearGradient id="deck" y2="1"><stop stop-color="#9f6335"/><stop offset="1" stop-color="#5a321f"/></linearGradient><filter id="glow"><feGaussianBlur stdDeviation="4" result="b"/><feMerge><feMergeNode in="b"/><feMergeNode in="SourceGraphic"/></feMerge></filter><style>.ln{stroke:#2a160e;stroke-width:6}.g{fill:#e7b14b}.p{fill:#f4d28d}.n{fill:#071522}.t{font:700 17px sans-serif;fill:#f8e7bd}.s{font:600 13px sans-serif;fill:#d3e8ef}</style></defs><rect width="1200" height="700" fill="url(#sea)"/><path d="M0 70q120 35 240 0t240 0 240 0 240 0 240 0v75H0z" fill="#0d7295" opacity=".55"/><path d="M0 620q130-35 260 0t260 0 260 0 260 0 160 0v80H0z" fill="#041822" opacity=".6"/><path d="M80 120Q600 25 1120 120l-35 480Q600 710 115 600z" fill="url(#deck)" class="ln"/><path d="M120 150Q600 65 1080 150" fill="none" stroke="#d2a66c" stroke-width="16"/><path d="M130 560Q600 650 1070 560" fill="none" stroke="#c99558" stroke-width="16"/><g opacity=".45" stroke="#d8a267" stroke-width="3"><path d="M180 145v430M260 125v475M340 110v510M420 100v530M500 95v540M580 90v550M660 95v540M740 100v530M820 110v510M900 125v475M980 145v430"/></g><rect x="555" y="45" width="90" height="530" rx="20" fill="url(#wood)" class="ln"/><rect x="536" y="220" width="128" height="42" rx="8" fill="#b67d47" class="ln"/><circle cx="600" cy="395" r="105" fill="#6d3d24" stroke="#d1a05d" stroke-width="10"/><circle cx="600" cy="395" r="64" fill="#3a2118" stroke="#e0b464" stroke-width="7"/><path d="M600 305v180M510 395h180M535 330l130 130M665 330L535 460" stroke="#e4bb6e" stroke-width="9"/><g transform="translate(180 210)"><rect width="220" height="105" rx="14" fill="#39251b" class="ln"/><rect x="18" y="18" width="184" height="69" fill="#0b2432" stroke="#c79042" stroke-width="5"/><path d="M36 70l40-25 38 14 32-24 38 23" fill="none" stroke="#35d3ce" stroke-width="7"/><text x="20" y="128" class="t">COMMAND / SPEC</text></g><g transform="translate(800 205)"><rect width="220" height="110" rx="14" fill="#39251b" class="ln"/><rect x="18" y="18" width="184" height="74" fill="#d6c28f" stroke="#b47a38" stroke-width="5"/><path d="M35 72l35-30 32 12 30-20 45 33" fill="none" stroke="#315c87" stroke-width="6"/><text x="48" y="134" class="t">ROUTE MAP</text></g><g transform="translate(155 410)"><rect width="245" height="120" rx="14" fill="#39251b" class="ln"/><circle cx="64" cy="55" r="28" fill="#27758c" stroke="#e7b14b" stroke-width="6"/><rect x="110" y="23" width="105" height="17" fill="#c9934c"/><rect x="110" y="50" width="80" height="17" fill="#3ecdc8"/><rect x="110" y="77" width="120" height="17" fill="#cc6b4e"/><text x="45" y="145" class="t">RESEARCH / DATA</text></g><g transform="translate(790 410)"><rect width="250" height="120" rx="14" fill="#39251b" class="ln"/><rect x="28" y="28" width="56" height="56" rx="12" fill="#efefdc"/><path d="M56 37v38M37 56h38" stroke="#38bfc5" stroke-width="10"/><rect x="110" y="24" width="110" height="18" fill="#4dd77a"/><rect x="110" y="53" width="95" height="18" fill="#e7b14b"/><rect x="110" y="82" width="125" height="18" fill="#db5b65"/><text x="78" y="145" class="t">QA / GUARD</text></g><g transform="translate(492 505)"><rect width="216" height="92" rx="14" fill="#39251b" class="ln"/><circle cx="55" cy="46" r="25" fill="#d45542" stroke="#f3d783" stroke-width="5"/><path d="M55 23v46M32 46h46" stroke="#f3d783" stroke-width="6"/><text x="95" y="40" class="t">OUTPUT</text><text x="95" y="65" class="s">Cook • Clone</text></g><g filter="url(#glow)"><circle cx="600" cy="85" r="18" fill="#31d8d0"/><circle cx="600" cy="85" r="7" fill="#fff"/></g><g transform="translate(300 330)"><rect x="-18" y="-28" width="36" height="42" rx="8" fill="#7b4ba6"/><circle cy="-35" r="16" fill="#d5a077"/><rect x="-18" y="-53" width="36" height="14" fill="#7b4ba6"/><rect x="-10" y="14" width="8" height="20" fill="#20151a"/><rect x="3" y="14" width="8" height="20" fill="#20151a"/></g><g transform="translate(895 330)"><rect x="-18" y="-28" width="36" height="42" rx="8" fill="#2d6549"/><circle cy="-35" r="16" fill="#d5a077"/><rect x="-18" y="-53" width="36" height="14" fill="#4b8b5f"/><rect x="-10" y="14" width="8" height="20" fill="#20151a"/><rect x="3" y="14" width="8" height="20" fill="#20151a"/></g><g transform="translate(515 420)"><rect x="-18" y="-28" width="36" height="42" rx="8" fill="#80502d"/><circle cy="-35" r="16" fill="#d5a077"/><rect x="-20" y="-53" width="40" height="14" fill="#6b3d22"/><rect x="-10" y="14" width="8" height="20" fill="#20151a"/><rect x="3" y="14" width="8" height="20" fill="#20151a"/></g><g transform="translate(885 525)"><rect x="-18" y="-28" width="36" height="42" rx="8" fill="#eef0e5"/><circle cy="-35" r="16" fill="#d5a077"/><path d="M-22-51q22-22 44 0" fill="#fff"/><rect x="-10" y="14" width="8" height="20" fill="#20151a"/><rect x="3" y="14" width="8" height="20" fill="#20151a"/></g><g fill="#e7b14b"><circle cx="120" cy="130" r="8"/><circle cx="1080" cy="130" r="8"/><circle cx="130" cy="570" r="8"/><circle cx="1070" cy="570" r="8"/></g></svg>