<svg xmlns="http://www.w3.org/2000/svg" viewBox="0 0 1200 700" role="img" aria-label="AGIS pirate operations deck without embedded characters" shape-rendering="crispEdges"><defs><linearGradient id="sea" x2="0" y2="1"><stop stop-color="#0b7194"/><stop offset="1" stop-color="#032b43"/></linearGradient><linearGradient id="deck" x2="0" y2="1"><stop stop-color="#a56738"/><stop offset="1" stop-color="#4e2b1a"/></linearGradient><linearGradient id="wood" x2="0" y2="1"><stop stop-color="#8d542c"/><stop offset="1" stop-color="#301b14"/></linearGradient><radialGradient id="lamp"><stop stop-color="#fff4b4"/><stop offset=".35" stop-color="#e8b44f"/><stop offset="1" stop-color="#8f5d1c"/></radialGradient><filter id="glow"><feGaussianBlur stdDeviation="5" result="b"/><feMerge><feMergeNode in="b"/><feMergeNode in="SourceGraphic"/></feMerge></filter><style>.outline{stroke:#24140e;stroke-width:6}.thin{stroke:#2c1810;stroke-width:3}.label{font:700 16px system-ui;fill:#f8deb0}.sub{font:600 12px system-ui;fill:#cce4ed}</style></defs><rect width="1200" height="700" fill="url(#sea)"/><path d="M0 70q120 35 240 0t240 0 240 0 240 0 240 0v85H0z" fill="#1694b4" opacity=".45"/><path d="M0 615q150-40 300 0t300 0 300 0 300 0v85H0z" fill="#021821" opacity=".55"/><path d="M72 116Q600 18 1128 116l-42 486Q600 716 112 600z" fill="url(#deck)" class="outline"/><path d="M112 150Q600 58 1088 150" fill="none" stroke="#d8aa6d" stroke-width="18"/><path d="M122 566Q600 650 1078 566" fill="none" stroke="#bf8650" stroke-width="18"/><g opacity=".38" stroke="#d9a26b" stroke-width="3"><path d="M165 145v430M245 126v472M325 112v505M405 101v526M485 94v540M565 88v550M645 88v550M725 94v540M805 101v526M885 112v505M965 126v472M1045 145v430"/></g><rect x="548" y="40" width="104" height="535" rx="20" fill="url(#wood)" class="outline"/><rect x="528" y="212" width="144" height="46" rx="8" fill="#b77d45" class="outline"/><path d="M600 40V15" stroke="#d9aa68" stroke-width="8"/><path d="M600 15L326 62l274 22 274-22z" fill="#e7e1ca" stroke="#5c4c3c" stroke-width="5"/><path d="M326 62l274 22 274-22" fill="none" stroke="#b6a98c" stroke-width="3"/><circle cx="600" cy="394" r="110" fill="#704025" stroke="#d4a65f" stroke-width="10"/><circle cx="600" cy="394" r="67" fill="#342019" stroke="#e0b76c" stroke-width="7"/><path d="M600 300v188M506 394h188M533 327l134 134M667 327L533 461" stroke="#e5bd70" stroke-width="9"/><g transform="translate(168 204)"><rect width="228" height="108" rx="13" fill="#39251b" class="outline"/><rect x="18" y="18" width="192" height="72" fill="#0b2432" stroke="#c79243" stroke-width="5"/><path d="M36 73l42-27 38 15 33-25 40 24" fill="none" stroke="#38d6d0" stroke-width="7"/><text x="20" y="132" class="label">COMMAND / SPEC</text></g><g transform="translate(804 204)"><rect width="228" height="112" rx="13" fill="#39251b" class="outline"/><rect x="18" y="18" width="192" height="76" fill="#d9c58f" stroke="#b47938" stroke-width="5"/><path d="M36 75l37-31 34 12 31-21 46 35" fill="none" stroke="#305f8c" stroke-width="6"/><text x="55" y="136" class="label">ROUTE MAP</text></g><g transform="translate(150 408)"><rect width="256" height="124" rx="14" fill="#39251b" class="outline"/><circle cx="66" cy="56" r="29" fill="#26768e" stroke="#e8b44f" stroke-width="6"/><rect x="112" y="24" width="110" height="18" fill="#c9934c"/><rect x="112" y="52" width="86" height="18" fill="#3ecdc8"/><rect x="112" y="80" width="124" height="18" fill="#cc6b4e"/><text x="46" y="149" class="label">RESEARCH / DATA</text></g><g transform="translate(786 408)"><rect width="260" height="124" rx="14" fill="#39251b" class="outline"/><rect x="28" y="28" width="58" height="58" rx="12" fill="#efefdc"/><path d="M57 37v40M37 57h40" stroke="#38bfc5" stroke-width="10"/><rect x="112" y="24" width="116" height="18" fill="#4dd77a"/><rect x="112" y="53" width="98" height="18" fill="#e7b14b"/><rect x="112" y="82" width="128" height="18" fill="#db5b65"/><text x="80" y="149" class="label">QA / GUARD</text></g><g transform="translate(486 510)"><rect width="228" height="92" rx="14" fill="#39251b" class="outline"/><circle cx="57" cy="46" r="25" fill="#d45542" stroke="#f3d783" stroke-width="5"/><path d="M57 23v46M34 46h46" stroke="#f3d783" stroke-width="6"/><text x="101" y="39" class="label">OUTPUT</text><text x="101" y="65" class="sub">Cook • Clone</text></g><g filter="url(#glow)"><circle cx="600" cy="84" r="20" fill="#31d8d0"/><circle cx="600" cy="84" r="8" fill="#fff"/></g><g><circle cx="116" cy="134" r="11" fill="url(#lamp)"/><circle cx="1084" cy="134" r="11" fill="url(#lamp)"/><circle cx="130" cy="566" r="10" fill="url(#lamp)"/><circle cx="1070" cy="566" r="10" fill="url(#lamp)"/></g><g opacity=".8"><rect x="90" y="270" width="38" height="88" fill="#2a1a12" class="thin"/><rect x="1072" y="270" width="38" height="88" fill="#2a1a12" class="thin"/><path d="M72 116l-50 150M1128 116l50 150" stroke="#3a2a21" stroke-width="9"/><path d="M20 265h85M1095 265h85" stroke="#d2ad73" stroke-width="5"/></g></svg>