<svg xmlns="http://www.w3.org/2000/svg" width="560" height="56" viewBox="0 0 560 56" shape-rendering="crispEdges"><defs><linearGradient id="b" x2="0" y2="1"><stop stop-color="#14324a"/><stop offset="1" stop-color="#061522"/></linearGradient><style>.o{stroke:#e9b653;stroke-width:1}.e{fill:#d7a47b}.u{fill:#132a42}.g{fill:#e9b653}.x{fill:#06111d}</style></defs><rect width="560" height="56" fill="#050b13"/><g transform="translate(0)"><rect width="56" height="56" rx="6" fill="url(#b)" class="o"/><rect x="15" y="31" width="26" height="20" class="u"/><rect x="19" y="15" width="18" height="22" rx="5" class="e"/><rect x="15" y="10" width="26" height="12" fill="#1b1616"/><rect x="17" y="7" width="22" height="6" class="g"/><rect x="22" y="25" width="3" height="3" class="x"/><rect x="32" y="25" width="3" height="3" class="x"/></g><g transform="translate(56)"><rect width="56" height="56" rx="6" fill="url(#b)" class="o"/><rect x="15" y="31" width="26" height="20" fill="#3a2350"/><rect x="19" y="15" width="18" height="22" rx="5" class="e"/><rect x="14" y="8" width="28" height="15" fill="#7b4ba6"/><rect x="11" y="13" width="8" height="20" fill="#7b4ba6"/><rect x="37" y="13" width="8" height="20" fill="#7b4ba6"/><rect x="22" y="25" width="3" height="3" class="x"/><rect x="32" y="25" width="3" height="3" class="x"/></g><g transform="translate(112)"><rect width="56" height="56" rx="6" fill="url(#b)" class="o"/><rect x="15" y="31" width="26" height="20" fill="#1b4a3f"/><rect x="19" y="15" width="18" height="22" rx="5" class="e"/><rect x="14" y="9" width="28" height="11" fill="#3f7d48"/><rect x="19" y="6" width="18" height="5" fill="#7faa69"/><rect x="22" y="25" width="3" height="3" class="x"/><rect x="32" y="25" width="3" height="3" class="x"/></g><g transform="translate(168)"><rect width="56" height="56" rx="6" fill="url(#b)" class="o"/><rect x="14" y="31" width="28" height="20" fill="#6d3c23"/><rect x="19" y="15" width="18" height="22" rx="5" class="e"/><rect x="13" y="7" width="30" height="17" fill="#6b3c22"/><rect x="11" y="12" width="8" height="19" fill="#6b3c22"/><rect x="37" y="12" width="8" height="19" fill="#6b3c22"/><rect x="22" y="25" width="3" height="3" class="x"/><rect x="32" y="25" width="3" height="3" class="x"/></g><g transform="translate(224)"><rect width="56" height="56" rx="6" fill="url(#b)" class="o"/><rect x="15" y="31" width="26" height="20" fill="#38264f"/><rect x="19" y="15" width="18" height="22" rx="5" class="e"/><path d="M9 18h38L39 8H17z" fill="#7b4aa0"/><rect x="20" y="7" width="16" height="7" fill="#aa76c9"/><rect x="22" y="25" width="3" height="3" class="x"/><rect x="32" y="25" width="3" height="3" class="x"/></g><g transform="translate(280)"><rect width="56" height="56" rx="6" fill="url(#b)" class="o"/><rect x="15" y="31" width="26" height="20" fill="#d8e6ef"/><rect x="19" y="15" width="18" height="22" rx="5" fill="#f0c6a3"/><rect x="13" y="8" width="30" height="15" fill="#e9eef5"/><rect x="17" y="5" width="22" height="7" fill="#7ecbd0"/><rect x="22" y="25" width="3" height="3" class="x"/><rect x="32" y="25" width="3" height="3" class="x"/></g><g transform="translate(336)"><rect width="56" height="56" rx="6" fill="url(#b)" class="o"/><rect x="14" y="31" width="28" height="20" fill="#581d26"/><rect x="19" y="15" width="18" height="22" rx="5" class="e"/><rect x="13" y="8" width="30" height="15" fill="#24171b"/><rect x="10" y="13" width="11" height="22" fill="#24171b"/><rect x="35" y="13" width="11" height="22" fill="#24171b"/><rect x="22" y="25" width="3" height="3" class="x"/><rect x="32" y="25" width="3" height="3" class="x"/></g><g transform="translate(392)"><rect width="56" height="56" rx="6" fill="url(#b)" class="o"/><rect x="14" y="31" width="28" height="20" fill="#f1efe5"/><rect x="19" y="15" width="18" height="22" rx="5" class="e"/><rect x="13" y="10" width="30" height="13" fill="#5d3520"/><path d="M15 12c2-8 24-8 26 0" fill="#f7f7ef"/><rect x="22" y="25" width="3" height="3" class="x"/><rect x="32" y="25" width="3" height="3" class="x"/></g><g transform="translate(448)"><rect width="56" height="56" rx="6" fill="url(#b)" class="o"/><rect x="14" y="31" width="28" height="20" fill="#2d2447"/><rect x="19" y="15" width="18" height="22" rx="5" class="e"/><rect x="12" y="8" width="32" height="15" fill="#2a1c39"/><rect x="10" y="14" width="10" height="20" fill="#2a1c39"/><rect x="36" y="14" width="10" height="20" fill="#2a1c39"/><rect x="22" y="25" width="3" height="3" class="x"/><rect x="32" y="25" width="3" height="3" class="x"/></g><g transform="translate(504)"><rect width="56" height="56" rx="6" fill="url(#b)" class="o"/><rect x="14" y="31" width="28" height="20" fill="#151827"/><rect x="19" y="15" width="18" height="22" rx="5" fill="#c49272"/><rect x="12" y="8" width="32" height="15" fill="#17121f"/><rect x="10" y="13" width="10" height="22" fill="#17121f"/><rect x="36" y="13" width="10" height="22" fill="#17121f"/><rect x="22" y="25" width="3" height="3" fill="#a66cff"/><rect x="32" y="25" width="3" height="3" fill="#a66cff"/></g></svg>